<?xml version="1.0" encoding="UTF-8"?>
<svg version="1.1" viewBox="0 0 338 353" xmlns="http://www.w3.org/2000/svg" >
<path d="M0 0 C0.8769992 -0.00200755 1.75399841 -0.0040151 2.65757334 -0.00608349 C5.60798421 -0.00903118 8.55786144 0.00967866 11.50820923 0.02832031 C13.6187377 0.03084253 15.729268 0.03210957 17.83979797 0.0322113 C23.58161237 0.03673983 29.32319112 0.06075207 35.06492949 0.08953476 C39.85382258 0.11206655 44.64272541 0.12586247 49.4316498 0.13986111 C60.7279272 0.17329854 72.02405344 0.22317736 83.32022095 0.28271484 C94.98256901 0.34385564 106.64473926 0.37553688 118.30722749 0.39299583 C128.31163139 0.40911609 138.31584472 0.44442 148.32013381 0.49495888 C154.29898974 0.5249087 160.27763776 0.54729891 166.25657272 0.55090332 C171.87921515 0.55505423 177.50123557 0.58308762 183.12368202 0.62962532 C185.18884615 0.64267928 187.25408406 0.64721346 189.31928444 0.64266777 C192.13600821 0.63780271 194.95084344 0.66350859 197.76733398 0.69702148 C198.5872773 0.68839458 199.40722062 0.67976768 200.2520107 0.67087936 C204.52789336 0.75723312 206.03887871 0.96596774 209.45873451 3.79652405 C210.13586683 4.64129807 210.81299915 5.48607208 211.51065063 6.35644531 C212.28976807 7.15743652 212.28976807 7.15743652 213.08462524 7.97460938 C218.58693456 13.76310754 223.79512091 19.37348279 228.02627563 26.18066406 C230.43948401 29.71791949 233.38883905 32.75044662 236.28799438 35.89160156 C238.92417639 38.81503011 241.31080493 41.8748904 243.69424438 45.00488281 C245.76738384 47.6888182 247.91486187 50.3030561 250.07315063 52.91894531 C251.55279003 54.73105942 253.03198212 56.54353889 254.51065063 58.35644531 C255.1513147 59.12730469 255.79197876 59.89816406 256.45205688 60.69238281 C257.00764282 61.38589844 257.56322876 62.07941406 258.13565063 62.79394531 C258.62291626 63.39078125 259.11018188 63.98761719 259.61221313 64.60253906 C260.51065063 66.35644531 260.51065063 66.35644531 259.51065063 70.35644531 C192.85065063 70.35644531 126.19065063 70.35644531 57.51065063 70.35644531 C57.51065063 88.83644531 57.51065063 107.31644531 57.51065063 126.35644531 C60.86360315 128.03292157 62.74952126 128.72331648 66.30410767 129.28613281 C67.25254547 129.43969238 68.20098328 129.59325195 69.17816162 129.75146484 C70.70786087 129.98905518 70.70786087 129.98905518 72.26846313 130.23144531 C73.32669281 130.40144043 74.38492249 130.57143555 75.47521973 130.74658203 C78.8610734 131.28941026 82.2482575 131.82331582 85.63565063 132.35644531 C89.00134368 132.89117257 92.36672295 133.42779058 95.73181152 133.96630859 C97.82395299 134.30057913 99.91648306 134.63242983 102.00946045 134.96142578 C106.69840312 135.70575973 111.38239227 136.47875867 116.05264282 137.33300781 C116.84305969 137.47561035 117.63347656 137.61821289 118.44784546 137.76513672 C121.81404567 138.73006697 123.46509901 140.69430534 125.63565063 143.35644531 C126.86734985 144.82984375 126.86734985 144.82984375 128.12393188 146.33300781 C128.91154907 147.33074219 129.69916626 148.32847656 130.51065063 149.35644531 C131.24670532 150.27167969 131.98276001 151.18691406 132.74111938 152.12988281 C134.09331986 153.81949917 135.43878682 155.51453455 136.77627563 157.21582031 C138.85614036 159.78286055 141.14548456 162.05192452 143.51065063 164.35644531 C145.31595149 166.38288547 147.09271579 168.43151655 148.86221313 170.48925781 C150.35645249 172.18178486 151.9129352 173.76293439 153.51065063 175.35644531 C154.56178774 176.53557062 155.60271953 177.72383903 156.63565063 178.91894531 C159.39659334 182.09344694 162.19114949 185.23382374 165.01065063 188.35644531 C168.19117574 191.88442274 171.36091344 195.41898201 174.47158813 199.00878906 C176.17443056 200.96934136 177.89092569 202.91604872 179.61221313 204.86035156 C180.72451803 206.12959743 181.83649508 207.39913068 182.94815063 208.66894531 C183.49318237 209.2802832 184.03821411 209.89162109 184.59976196 210.52148438 C188.51065063 215.01635754 188.51065063 215.01635754 188.51065063 218.35644531 C183.46035563 217.94417633 178.7863789 216.96533969 173.89346313 215.64160156 C173.2458754 215.46667679 172.59828766 215.29175201 171.93107605 215.11152649 C163.42325724 212.80457804 154.9331671 210.43319271 146.44815063 208.04394531 C145.5887085 207.80211517 144.72926636 207.56028503 143.84378052 207.31112671 C133.25760562 204.32714467 122.71673485 201.25967724 112.25723267 197.85375977 C94.52132027 192.08205541 76.589697 186.936764 58.51065063 182.35644531 C56.75959985 187.25674478 55.58241932 192.16817625 54.48721313 197.24316406 C54.29976532 198.09965042 54.1123175 198.95613678 53.91918945 199.83857727 C53.32161659 202.57304278 52.72864437 205.30848358 52.13565063 208.04394531 C51.7453097 209.83111675 51.35468701 211.61822668 50.96377563 213.40527344 C50.77144348 214.28724396 50.57911133 215.16921448 50.38095093 216.07791138 C49.99431564 217.85081871 49.60666541 219.62350502 49.21798706 221.39596558 C48.23951539 225.88534168 47.30309786 230.3779369 46.43545532 234.89013672 C46.26234833 235.77071243 46.08924133 236.65128815 45.91088867 237.55854797 C45.58305322 239.23589593 45.26601906 240.91540098 44.96124268 242.59709167 C44.51602173 244.85180664 44.51602173 244.85180664 43.51065063 248.35644531 C40.46392165 249.37202164 38.75387501 249.40487196 35.59268188 249.23535156 C34.59639771 249.18717285 33.60011353 249.13899414 32.57363892 249.08935547 C31.50097778 249.03312012 30.42831665 248.97688477 29.32315063 248.91894531 C19.21337577 248.42625469 9.16024059 248.28137612 -0.95883179 248.56958008 C-1.90476196 248.58432373 -2.85069214 248.59906738 -3.82528687 248.61425781 C-4.65592651 248.63633301 -5.48656616 248.6584082 -6.34237671 248.68115234 C-9.07388682 248.26804017 -9.78230741 247.49234191 -11.48934937 245.35644531 C-11.86539686 243.43559074 -11.86539686 243.43559074 -11.86687279 241.21627808 C-11.87469603 240.3691733 -11.88251927 239.52206852 -11.89057958 238.6492939 C-11.88388742 237.7184693 -11.87719525 236.78764469 -11.87030029 235.82861328 C-11.87498026 234.83994703 -11.87966024 233.85128078 -11.88448203 232.83265495 C-11.89649209 229.50451297 -11.88695122 226.17677819 -11.87753296 222.84863281 C-11.88159598 220.46884927 -11.88693634 218.08906761 -11.89346313 215.70928955 C-11.9057491 209.90735086 -11.90391428 204.10554258 -11.89522521 198.30359983 C-11.88845657 193.58925133 -11.88752838 188.87493546 -11.89079666 184.1605835 C-11.89125636 183.49021871 -11.89171606 182.81985393 -11.89218969 182.12917507 C-11.89314884 180.76744285 -11.89412148 179.40571065 -11.89510746 178.04397845 C-11.90366696 165.26788568 -11.89381847 152.49185744 -11.87770636 139.71577525 C-11.86430266 128.74765899 -11.86663059 117.77963798 -11.88046265 106.81152344 C-11.8965086 94.08189131 -11.90284294 81.35231577 -11.89362586 68.62267494 C-11.89267018 67.26588568 -11.89172707 65.90909641 -11.89079666 64.55230713 C-11.89033383 63.88469954 -11.88987101 63.21709196 -11.88939416 62.52925384 C-11.88680131 57.81927311 -11.8911816 53.10932821 -11.89823532 48.39935303 C-11.90687877 42.06284784 -11.90093104 35.72652315 -11.88355255 29.39003754 C-11.87957367 27.05954031 -11.88074553 24.72902798 -11.88734055 22.39853668 C-11.89549077 19.22690933 -11.8853134 16.05586702 -11.87030029 12.88427734 C-11.87699246 11.95345274 -11.88368462 11.02262814 -11.89057958 10.06359673 C-11.88275634 9.21649195 -11.8749331 8.36938717 -11.86687279 7.49661255 C-11.86638573 6.76423937 -11.86589867 6.03186619 -11.86539686 5.27729988 C-10.66351269 -0.86193717 -5.07686903 -0.05677189 0 0 Z " fill="currentColor" transform="translate(34.489349365234375,45.6435546875)"/>
<path d="M0 0 C5.19290963 -0.09414422 9.97750323 0.16547245 15.1171875 1.03125 C15.79022919 1.14250717 16.46327087 1.25376434 17.15670776 1.36839294 C19.39713481 1.73986542 21.63599293 2.12007066 23.875 2.5 C26.34022781 2.91079789 28.80584475 3.31920556 31.27148438 3.7275238 C33.03527596 4.01974042 34.79894505 4.3126972 36.5625 4.6063385 C43.40952254 5.74452973 50.2618671 6.84657813 57.1171875 7.93359375 C58.66396431 8.17890335 58.66396431 8.17890335 60.24198914 8.4291687 C62.34914001 8.7632943 64.45629233 9.09741086 66.56344604 9.43151855 C83.49420015 12.11989212 100.41319626 14.87024684 117.3125 17.75 C118.52105652 17.95506668 118.52105652 17.95506668 119.75402832 18.16427612 C128.56256995 19.66166453 137.34855159 21.24553746 146.12109375 22.94140625 C159.0401992 25.4350806 172.0182033 27.57284992 184.99755859 29.72631836 C188.11874917 30.24510257 191.23909749 30.76872526 194.359375 31.29296875 C195.3164032 31.45024948 196.2734314 31.60753021 197.25946045 31.76957703 C198.56913788 31.9903466 198.56913788 31.9903466 199.90527344 32.21557617 C201.05935699 32.40732674 201.05935699 32.40732674 202.23675537 32.60295105 C204 33 204 33 205 34 C205.15922919 35.73940382 205.25150561 37.48499819 205.31640625 39.23046875 C205.35854248 40.33398682 205.40067871 41.43750488 205.4440918 42.57446289 C205.4831665 43.76676514 205.52224121 44.95906738 205.5625 46.1875 C205.6035083 47.39591553 205.6445166 48.60433105 205.68676758 49.84936523 C205.93723044 57.75268726 206.12815797 65.65534053 206.1875 73.5625 C206.20047119 74.48893311 206.21344238 75.41536621 206.22680664 76.36987305 C206.22801514 77.218479 206.22922363 78.06708496 206.23046875 78.94140625 C206.23457764 79.68076416 206.23868652 80.42012207 206.24291992 81.18188477 C206 83 206 83 204 85 C202.10948181 85.01216125 202.10948181 85.01216125 199.78100586 84.6730957 C198.91069229 84.5510527 198.04037872 84.4290097 197.14369202 84.30326843 C196.19779709 84.15807266 195.25190216 84.01287689 194.27734375 83.86328125 C192.80200417 83.64856926 192.80200417 83.64856926 191.29685974 83.42951965 C180.68886364 81.85972367 170.12225136 80.05062573 159.5625 78.1875 C157.52149228 77.83060259 155.48047653 77.4737511 153.43945312 77.11694336 C142.60147468 75.2138815 131.79107887 73.21631559 121 71.0625 C107.06902905 68.29257137 93.07387011 65.94894076 79.0625 63.625 C77.91565735 63.43419861 76.7688147 63.24339722 75.58721924 63.04681396 C63.87679747 61.09956218 52.16343302 59.17507442 40.43656921 57.3291626 C35.97511138 56.62531727 31.51554328 55.90991837 27.05612183 55.19329834 C24.9481363 54.85812866 22.83918223 54.52899061 20.72927856 54.20611572 C17.81441043 53.75995144 14.90328864 53.29424121 11.9921875 52.82421875 C11.13438187 52.69845963 10.27657623 52.5727005 9.39277649 52.44313049 C6.0182603 51.88177068 3.43897203 51.24897485 0.44873047 49.55297852 C-1.94686804 45.33141235 -1.37239413 41.07912695 -1.171875 36.328125 C-1.14401917 35.29057068 -1.11616333 34.25301636 -1.08746338 33.184021 C-0.99413192 29.87178286 -0.87242655 26.56127799 -0.75 23.25 C-0.68172253 21.00396235 -0.61529377 18.75786769 -0.55078125 16.51171875 C-0.38862976 11.0069712 -0.20317753 5.50337773 0 0 Z " fill="currentColor" transform="translate(96,120)"/>
<path d="M0 0 C6.87110564 0.65035156 13.49952937 1.8310733 20.25 3.25 C27.413149 4.74713337 34.56081384 6.12013202 41.80078125 7.1953125 C43.0940332 7.39350586 44.38728516 7.59169922 45.71972656 7.79589844 C48.2274233 8.17380547 50.73856936 8.52967226 53.25292969 8.86035156 C61.18290545 10.07915676 65.58399287 12.09929804 71 18 C71.98820469 18.95206803 72.98007636 19.90035325 73.9765625 20.84375 C82.76197195 29.65507511 82.76197195 29.65507511 86.5859375 34.3671875 C88.60547762 36.69914267 90.8132685 38.82384154 93 41 C94.05042296 42.04983738 95.10053775 43.09998316 96.15039062 44.15039062 C96.71447632 44.71447632 97.27856201 45.27856201 97.85974121 45.85974121 C104.85636393 52.85636393 111.85298665 59.85298665 118.84960938 66.84960938 C119.38475662 67.38466599 119.91990387 67.9197226 120.4712677 68.47099304 C121.90231204 69.90229449 123.33241618 71.3345358 124.76245117 72.7668457 C126.31643522 74.31777773 127.88220269 75.85695682 129.45703125 77.38671875 C130.23433594 78.14597656 131.01164063 78.90523438 131.8125 79.6875 C132.60269531 80.45449219 133.39289063 81.22148437 134.20703125 82.01171875 C136 84 136 84 136 86 C136.5887793 86.26192139 137.17755859 86.52384277 137.78417969 86.79370117 C141.61636406 88.87995315 144.28909513 92.15600691 147.25 95.3125 C147.8996875 95.97701172 148.549375 96.64152344 149.21875 97.32617188 C149.83234375 97.97779297 150.4459375 98.62941406 151.078125 99.30078125 C151.63918945 99.89028564 152.20025391 100.47979004 152.77832031 101.0871582 C154.33029231 103.51715433 154.22767779 105.17137743 154 108 C153.21886589 107.72987846 153.21886589 107.72987846 152.42195129 107.45429993 C146.29866283 105.37111586 140.12011766 103.57718955 133.88671875 101.85546875 C132.8370845 101.56319901 131.78745026 101.27092926 130.70600891 100.96980286 C127.36710321 100.04020402 124.02740095 99.11351615 120.6875 98.1875 C95.76776718 91.27627552 95.76776718 91.27627552 83.76953125 87.73828125 C82.96488937 87.50497604 82.1602475 87.27167084 81.33122253 87.03129578 C74.6457596 85.03593725 69.35927275 82.94626459 64.8125 77.4375 C62.57519979 74.75009206 60.93567203 72.95711469 58 71 C58 70.34 58 69.68 58 69 C57.34 69 56.68 69 56 69 C54.41466298 67.28667246 52.90458785 65.50310953 51.4375 63.6875 C50.63183594 62.70136719 49.82617188 61.71523437 48.99609375 60.69921875 C47 58 47 58 46 55 C45.34 55 44.68 55 44 55 C42.44921875 53.20703125 42.44921875 53.20703125 40.6875 50.8125 C37.99334556 47.24801172 35.20198569 44.12388848 32 41 C27.70620891 36.35550192 23.63401423 31.56696773 19.6875 26.625 C16.4145368 22.57492075 12.97029777 18.87830723 9.25 15.25 C5.31396353 11.38030122 1.78722194 7.77809475 -1 3 C-0.67 2.01 -0.34 1.02 0 0 Z " fill="currentColor" transform="translate(166,186)"/>
<path d="M0 0 C1.0442086 0.00303635 1.0442086 0.00303635 2.10951233 0.00613403 C2.83956985 0.00438171 3.56962738 0.00262939 4.32180786 0.00082397 C6.74650924 -0.00359443 9.17113828 -0.00065661 11.59584045 0.00271606 C13.27353428 0.00204302 14.95122802 0.00107299 16.62892151 -0.00018311 C20.14964219 -0.00166006 23.67033755 0.0004944 27.1910553 0.00515747 C31.71419541 0.01085476 36.23727619 0.00757574 40.76041412 0.00158501 C44.22611441 -0.00202067 47.69180052 -0.00088199 51.15750122 0.0017128 C52.8257447 0.00238205 54.49398945 0.00155371 56.16223145 -0.00076675 C58.48974539 -0.00329339 60.81716193 0.00054744 63.14466858 0.00613403 C63.84080765 0.0041098 64.53694672 0.00208557 65.25418091 0 C70.01282772 0.02126583 70.01282772 0.02126583 71.12709045 1.13552856 C71.28534304 3.13334983 71.37828217 5.1364169 71.4434967 7.13943481 C71.48539124 8.35437622 71.52728577 9.56931763 71.57044983 10.82107544 C71.60976624 12.10046997 71.64908264 13.3798645 71.68959045 14.69802856 C71.73277405 15.98129028 71.77595764 17.264552 71.82044983 18.58670044 C71.92693845 21.7695271 72.02895007 24.9524353 72.12709045 28.13552856 C66.67217981 28.26714127 61.66238908 27.87248714 56.30677795 26.78005981 C55.57732971 26.63813202 54.84788147 26.49620422 54.09632874 26.34997559 C51.73030567 25.88893248 49.36627694 25.41838918 47.00209045 24.94802856 C43.69058167 24.29964057 40.37785799 23.65767679 37.06459045 23.01834106 C36.2330545 22.85756577 35.40151855 22.69679047 34.54478455 22.53114319 C29.08407654 21.48458558 23.61520869 20.51904512 18.12709045 19.62771606 C17.08236069 19.45791481 17.08236069 19.45791481 16.01652527 19.28468323 C12.7398404 18.75577871 9.4617193 18.23978033 6.18128967 17.73440552 C5.02645081 17.55095581 3.87161194 17.3675061 2.68177795 17.17849731 C1.17333313 16.94682861 1.17333313 16.94682861 -0.36558533 16.71047974 C-2.87290955 16.13552856 -2.87290955 16.13552856 -5.87290955 14.13552856 C-6.20103455 11.13162231 -6.20103455 11.13162231 -6.12290955 7.57302856 C-6.09970642 5.80765747 -6.09970642 5.80765747 -6.07603455 4.00662231 C-5.74484768 -0.67457671 -4.28423867 0.01914575 0 0 Z " fill="currentColor" transform="translate(226.87290954589844,119.86447143554688)"/>
<path d="M0 0 C27.60682402 -0.02333058 55.21364656 -0.04097996 82.82047844 -0.05181217 C95.63797205 -0.05697479 108.45545954 -0.06401684 121.27294922 -0.07543945 C132.44091169 -0.08538733 143.60886974 -0.09185368 154.77683651 -0.09408849 C160.69356466 -0.09539542 166.61028014 -0.09848017 172.52700424 -0.10573006 C178.09023378 -0.1124919 183.65344536 -0.11461662 189.21667862 -0.11310768 C191.26378731 -0.11338393 193.31089656 -0.11538809 195.35800171 -0.11920547 C198.14240727 -0.12414526 200.92674413 -0.1229972 203.71115112 -0.12025452 C204.53020648 -0.12316736 205.34926183 -0.1260802 206.19313705 -0.12908131 C211.77175758 -0.11412121 211.77175758 -0.11412121 214 1 C213.67 1.99 213.34 2.98 213 4 C212.01 3.505 212.01 3.505 211 3 C209.07872649 2.91375118 207.15438655 2.89292396 205.23120117 2.90234375 C204.01780563 2.90564697 202.8044101 2.9089502 201.554245 2.91235352 C200.57594003 2.91853195 200.57594003 2.91853195 199.57787132 2.92483521 C197.51783075 2.93765645 195.45785521 2.94413285 193.39778137 2.94897461 C188.26293643 2.9623236 183.12815032 2.9860939 177.99334717 3.01037598 C172.98906303 3.03368502 167.98479771 3.05224354 162.98046875 3.0625 C162.28382488 3.06397915 161.58718102 3.0654583 160.86942673 3.06698227 C149.87149883 3.0817469 138.92637606 2.7612843 127.94888306 2.10455322 C121.46007011 1.7564429 115.07821389 1.87432685 108.61645508 2.51538086 C98.30420233 3.32647524 87.97117507 3.00990541 77.63671875 2.87890625 C75.3908592 2.85456118 73.14499414 2.83071994 70.89912415 2.80735779 C65.02855073 2.74495289 59.15807669 2.67576608 53.28759766 2.60510254 C47.28096996 2.5340218 41.27427259 2.46944384 35.26757812 2.40429688 C23.51164216 2.27584768 11.755801 2.14022415 0 2 C0 1.34 0 0.68 0 0 Z " fill="currentColor" transform="translate(29,47)"/>
<path d="M0 0 C4.54033705 0.48387251 6.61849196 2.0506951 9.8125 5.25 C10.99779297 6.40242188 10.99779297 6.40242188 12.20703125 7.578125 C14.25540062 10.34498558 14.39910711 11.64035213 14 15 C12.80375 14.5875 11.6075 14.175 10.375 13.75 C3.9817563 11.61209931 -2.51042602 9.81855772 -9 8 C-9 7.67 -9 7.34 -9 7 C-3.06 6.505 -3.06 6.505 3 6 C3 5.34 3 4.68 3 4 C2.01 3.34 1.02 2.68 0 2 C0 1.34 0 0.68 0 0 Z " fill="currentColor" transform="translate(306,279)"/>
<path d="M0 0 C-0.33 1.32 -0.66 2.64 -1 4 C0.11375 3.95875 1.2275 3.9175 2.375 3.875 C7.39901336 3.85699278 12.1218197 4.88041764 17 6 C17 6.66 17 7.32 17 8 C17.90492188 8.05607422 17.90492188 8.05607422 18.828125 8.11328125 C26.76625659 8.76625659 26.76625659 8.76625659 30 12 C29.67 12.66 29.34 13.32 29 14 C23.62242229 12.4784167 18.24737697 10.94829714 12.87451172 9.41015625 C11.04575855 8.88793372 9.21633153 8.36806504 7.38623047 7.85058594 C4.75828929 7.10707087 2.1328747 6.35516993 -0.4921875 5.6015625 C-1.31306854 5.3712735 -2.13394958 5.1409845 -2.97970581 4.90371704 C-8.77225659 3.22774341 -8.77225659 3.22774341 -11 1 C-7.32589215 -0.17571451 -3.83070817 -0.07366746 0 0 Z " fill="currentColor" transform="translate(256,270)"/>
<path d="M0 0 C0.66 0 1.32 0 2 0 C2 14.85 2 29.7 2 45 C1.67 45 1.34 45 1 45 C0.67 42.03 0.34 39.06 0 36 C-0.33 36 -0.66 36 -1 36 C-1.02468447 31.19450253 -1.04285255 26.38904182 -1.05493164 21.58349609 C-1.05996621 19.94807289 -1.06679427 18.3126542 -1.07543945 16.67724609 C-1.08754335 14.32909025 -1.093237 11.98099381 -1.09765625 9.6328125 C-1.10281754 8.89942657 -1.10797882 8.16604065 -1.11329651 7.41043091 C-1.11387171 2.22774341 -1.11387171 2.22774341 0 0 Z " fill="currentColor" transform="translate(299,157)"/>
<path d="M0 0 C3.14581423 -0.02888514 6.29159469 -0.04675923 9.4375 -0.0625 C10.33533203 -0.07087891 11.23316406 -0.07925781 12.15820312 -0.08789062 C13.01220703 -0.09111328 13.86621094 -0.09433594 14.74609375 -0.09765625 C15.93223267 -0.10551147 15.93223267 -0.10551147 17.14233398 -0.11352539 C19 0 19 0 20 1 C20.15825258 2.99782126 20.25119171 5.00088834 20.31640625 7.00390625 C20.35830078 8.21884766 20.40019531 9.43378906 20.44335938 10.68554688 C20.48267578 11.96494141 20.52199219 13.24433594 20.5625 14.5625 C20.60568359 15.84576172 20.64886719 17.12902344 20.69335938 18.45117188 C20.799848 21.63399853 20.90185962 24.81690674 21 28 C18.36 28 15.72 28 13 28 C14.32 27.34 15.64 26.68 17 26 C16.99214478 25.12263184 16.99214478 25.12263184 16.98413086 24.22753906 C16.96329842 21.56837037 16.95031993 18.90921889 16.9375 16.25 C16.92912109 15.32960937 16.92074219 14.40921875 16.91210938 13.4609375 C16.90727539 12.12675781 16.90727539 12.12675781 16.90234375 10.765625 C16.89448853 9.54020996 16.89448853 9.54020996 16.88647461 8.29003906 C17 6 17 6 18 2 C12.06 1.67 6.12 1.34 0 1 C0 0.67 0 0.34 0 0 Z " fill="currentColor" transform="translate(278,120)"/>
<path d="M0 0 C5.0302076 0.52537724 10.01885239 1.10594786 15 2 C14.01 3.485 14.01 3.485 13 5 C10.36 4.67 7.72 4.34 5 4 C5.495 4.433125 5.99 4.86625 6.5 5.3125 C8 7 8 7 8 10 C8.66 10.33 9.32 10.66 10 11 C10 11.66 10 12.32 10 13 C7.16977199 12.63602389 6.09216828 12.09235225 4.04296875 10.0390625 C3.43066406 9.24242187 2.81835938 8.44578125 2.1875 7.625 C1.56230469 6.83351562 0.93710938 6.04203125 0.29296875 5.2265625 C-0.13371094 4.49179688 -0.56039062 3.75703125 -1 3 C-0.67 2.01 -0.34 1.02 0 0 Z " fill="currentColor" transform="translate(166,186)"/>
<path d="M0 0 C4.00784175 2.97725387 7.0329929 6.01573333 10 10 C10 10.99 10 11.98 10 13 C5.03083364 12.48594831 0.70973649 11.76615118 -4 10 C-2.68 9.34 -1.36 8.68 0 8 C0 5.36 0 2.72 0 0 Z " fill="currentColor" transform="translate(213,251)"/>
<path d="M0 0 C0.33 0 0.66 0 1 0 C2.14724086 12.00505617 2.1063689 23.95249476 2 36 C1.01 35.67 0.02 35.34 -1 35 C-1.02468646 30.33691801 -1.04285349 25.67387392 -1.05493164 21.01074219 C-1.05996588 19.42382139 -1.06679369 17.83690523 -1.07543945 16.25 C-1.08754482 13.97134251 -1.09323733 11.69274624 -1.09765625 9.4140625 C-1.10281754 8.70255035 -1.10797882 7.99103821 -1.11329651 7.25796509 C-1.11387171 2.22774341 -1.11387171 2.22774341 0 0 Z " fill="currentColor" transform="translate(89,134)"/>
<path d="M0 0 C11.39947424 1.3201026 22.69394268 3.03714283 34 5 C34 5.33 34 5.66 34 6 C23.39726368 6.34657855 13.2033714 6.39075452 3 3 C2.67 2.34 2.34 1.68 2 1 C1.34 0.67 0.68 0.34 0 0 Z " fill="currentColor" transform="translate(175,132)"/>
<path d="M0 0 C0.66 0.33 1.32 0.66 2 1 C2 1.66 2 2.32 2 3 C3.14597656 3.06058594 4.29195312 3.12117187 5.47265625 3.18359375 C7.00261297 3.26806989 8.53256041 3.35271427 10.0625 3.4375 C10.81466797 3.47681641 11.56683594 3.51613281 12.34179688 3.55664062 C16.94698741 3.81580719 21.44366724 4.2799421 26 5 C26 5.66 26 6.32 26 7 C26.66 7.33 27.32 7.66 28 8 C16.88044635 6.83024498 5.96029949 5.21271188 -5 3 C-4.360625 2.690625 -3.72125 2.38125 -3.0625 2.0625 C-1.06389179 1.1654837 -1.06389179 1.1654837 0 0 Z " fill="currentColor" transform="translate(183,181)"/>
<path d="M0 0 C1.58167969 0.16242188 1.58167969 0.16242188 3.1953125 0.328125 C6.1906767 0.69555634 9.16205529 1.11137186 12.125 1.6875 C12.125 2.3475 12.125 3.0075 12.125 3.6875 C13.775 3.6875 15.425 3.6875 17.125 3.6875 C17.125 4.3475 17.125 5.0075 17.125 5.6875 C11.10004376 4.96924711 5.11557867 4.08662131 -0.875 3.125 C-1.74511719 2.98642578 -2.61523438 2.84785156 -3.51171875 2.70507812 C-5.63300183 2.36707148 -7.75402816 2.02745416 -9.875 1.6875 C-6.25701787 -0.29382203 -4.13246509 -0.4363799 0 0 Z " fill="currentColor" transform="translate(108.875,169.3125)"/>
<path d="M0 0 C0.33 0 0.66 0 1 0 C1.05787784 3.62493334 1.0935542 7.24974857 1.125 10.875 C1.14175781 11.90753906 1.15851563 12.94007813 1.17578125 14.00390625 C1.18222656 14.99003906 1.18867188 15.97617188 1.1953125 16.9921875 C1.20578613 17.90339355 1.21625977 18.81459961 1.22705078 19.75341797 C1 22 1 22 -1 24 C-3.09375 24.08203125 -3.09375 24.08203125 -5.5 23.8125 C-6.2940625 23.73644531 -7.088125 23.66039062 -7.90625 23.58203125 C-10 23 -10 23 -12 20 C-9.03 20 -6.06 20 -3 20 C-2.67 18.02 -2.34 16.04 -2 14 C-1.67 14 -1.34 14 -1 14 C-0.67 9.38 -0.34 4.76 0 0 Z " fill="currentColor" transform="translate(301,181)"/>
<path d="M0 0 C4.37934119 0.51958285 8.68803391 1.05675742 13 2 C13.33 1.34 13.66 0.68 14 0 C14.45375 0.495 14.9075 0.99 15.375 1.5 C16.87635519 3.22609337 16.87635519 3.22609337 19 3 C19.66 2.34 20.32 1.68 21 1 C23 3 23 3 23.125 5.625 C23.08375 6.40875 23.0425 7.1925 23 8 C21.80375 7.5875 20.6075 7.175 19.375 6.75 C12.9817563 4.61209931 6.48957398 2.81855772 0 1 C0 0.67 0 0.34 0 0 Z " fill="currentColor" transform="translate(297,286)"/>
<path d="M0 0 C9.43078051 0.76054682 18.68556572 2.38671563 28 4 C28 4.33 28 4.66 28 5 C20.85391137 6.22428334 14.76415287 6.07252375 7.8125 4.1875 C7.15306396 4.00993164 6.49362793 3.83236328 5.81420898 3.64941406 C4.18628797 3.17261532 2.58890651 2.59400336 1 2 C0.67 1.34 0.34 0.68 0 0 Z " fill="currentColor" transform="translate(215,139)"/>
<path d="M0 0 C3.54632271 1.64945242 7.29496474 2.74790114 11.015625 3.9375 C10.685625 4.5975 10.355625 5.2575 10.015625 5.9375 C8.365625 5.9375 6.715625 5.9375 5.015625 5.9375 C5.015625 5.2775 5.015625 4.6175 5.015625 3.9375 C4.273125 3.97875 3.530625 4.02 2.765625 4.0625 C0.015625 3.9375 0.015625 3.9375 -1.984375 2.875 C-4.64021618 1.63007445 -6.22004845 2.16963151 -8.984375 2.9375 C-8.984375 1.9475 -8.984375 0.9575 -8.984375 -0.0625 C-5.55178236 -2.6712704 -3.6869986 -1.79540801 0 0 Z " fill="currentColor" transform="translate(284.984375,141.0625)"/>
<path d="M0 0 C5.35810969 -0.16898112 10.19349172 0.43488578 15.4375 1.5 C16.16904297 1.64308594 16.90058594 1.78617188 17.65429688 1.93359375 C19.43735486 2.28321296 21.21885203 2.64077688 23 3 C23 3.33 23 3.66 23 4 C16.30457742 5.62313275 10.49349705 5.32785743 4 3 C1.5625 1.375 1.5625 1.375 0 0 Z " fill="currentColor" transform="translate(200,193)"/>
<path d="M0 0 C2.31 0.33 4.62 0.66 7 1 C7.28875 1.9075 7.5775 2.815 7.875 3.75 C8.76531776 6.32202908 9.71494413 8.61346766 11 11 C11.99 11 12.98 11 14 11 C13.34 12.32 12.68 13.64 12 15 C10.18503664 12.87706098 8.37295406 10.75177875 6.5625 8.625 C6.04623047 8.02171875 5.52996094 7.4184375 4.99804688 6.796875 C1.11328125 2.2265625 1.11328125 2.2265625 0 0 Z " fill="currentColor" transform="translate(184,210)"/>
<path d="M0 0 C4.54074179 1.42358391 7.03973147 3.72132073 10.3125 7.125 C11.19550781 8.03507813 12.07851563 8.94515625 12.98828125 9.8828125 C13.65214844 10.58148438 14.31601562 11.28015625 15 12 C14.34 12.66 13.68 13.32 13 14 C12.67 13.01 12.34 12.02 12 11 C11.01 10.67 10.02 10.34 9 10 C9 9.34 9 8.68 9 8 C7.68 8 6.36 8 5 8 C2 4.78571429 2 4.78571429 2 2 C1.34 2 0.68 2 0 2 C0 1.34 0 0.68 0 0 Z " fill="currentColor" transform="translate(255,226)"/>
<path d="M0 0 C1.32 0 2.64 0 4 0 C4 0.99 4 1.98 4 3 C5.32 3 6.64 3 8 3 C8.33 2.34 8.66 1.68 9 1 C11.97 1.99 14.94 2.98 18 4 C18 4.66 18 5.32 18 6 C15.39442509 5.71815415 12.79099602 5.42497289 10.1875 5.125 C9.44951172 5.04636719 8.71152344 4.96773437 7.95117188 4.88671875 C4.28493819 4.45539714 2.12048255 4.0803217 -1 2 C-0.67 1.34 -0.34 0.68 0 0 Z " fill="currentColor" transform="translate(272,141)"/>
<path d="M0 0 C1.99954746 -0.04254356 4.00041636 -0.04080783 6 0 C6.33 0.33 6.66 0.66 7 1 C8.49175777 1.07485925 9.98697755 1.08321696 11.48046875 1.0625 C12.39763672 1.05476563 13.31480469 1.04703125 14.25976562 1.0390625 C16.19206079 1.01328138 18.12435256 0.98724503 20.05664062 0.9609375 C24.83008892 0.92096445 29.30505553 0.98999514 34 2 C34 2.33 34 2.66 34 3 C29.4793335 3.02468857 24.9587061 3.04285449 20.43798828 3.05493164 C18.89956987 3.05996552 17.36115625 3.06679308 15.82275391 3.07543945 C13.61359474 3.08754639 11.40449874 3.09323769 9.1953125 3.09765625 C8.16085495 3.10539818 8.16085495 3.10539818 7.10549927 3.11329651 C2.22774341 3.11387171 2.22774341 3.11387171 0 2 C0 1.34 0 0.68 0 0 Z " fill="currentColor" transform="translate(41,290)"/>
<path d="M0 0 C4.38332057 0.82187261 8.67940177 1.90154282 13 3 C13 3.66 13 4.32 13 5 C1.47835991 4.03644647 1.47835991 4.03644647 -4 3 C-2.68 2.67 -1.36 2.34 0 2 C0 1.34 0 0.68 0 0 Z " fill="currentColor" transform="translate(264,196)"/>
<path d="M0 0 C4.21814817 3.9700218 7.61227103 8.30840284 11 13 C8.03 12.505 8.03 12.505 5 12 C5.33 10.68 5.66 9.36 6 8 C5.01 8.33 4.02 8.66 3 9 C3 8.01 3 7.02 3 6 C1.68 6 0.36 6 -1 6 C-0.67 4.02 -0.34 2.04 0 0 Z " fill="currentColor" transform="translate(265,76)"/>
<path d="M0 0 C4.25209792 4.12324647 8.13635705 8.51282966 12 13 C11.01 13.99 10.02 14.98 9 16 C8.5875 14.88625 8.175 13.7725 7.75 12.625 C6.64453484 10.00679305 6.25119213 9.16506911 3.8125 7.5625 C3.214375 7.376875 2.61625 7.19125 2 7 C2 6.34 2 5.68 2 5 C1.34 5 0.68 5 0 5 C0 3.35 0 1.7 0 0 Z " fill="currentColor" transform="translate(243,49)"/>
<path d="M0 0 C0.33 0 0.66 0 1 0 C1.33 2.64 1.66 5.28 2 8 C2.99 8 3.98 8 5 8 C7.1875 9 7.1875 9 9 10 C8 11 8 11 5.93359375 11.09765625 C5.10988281 11.08605469 4.28617188 11.07445312 3.4375 11.0625 C2.61121094 11.05347656 1.78492188 11.04445313 0.93359375 11.03515625 C0.29550781 11.02355469 -0.34257812 11.01195312 -1 11 C-2.31538327 6.84228506 -1.34433068 4.1120703 0 0 Z " fill="currentColor" transform="translate(25,282)"/>
<path d="M0 0 C0.9867097 3.11074833 0.96838493 5.16442757 0.22265625 8.328125 C0.03896484 9.12734375 -0.14472656 9.9265625 -0.33398438 10.75 C-0.63272461 11.9875 -0.63272461 11.9875 -0.9375 13.25 C-1.23043945 14.51070313 -1.23043945 14.51070313 -1.52929688 15.796875 C-2.01142286 17.86648898 -2.50463863 19.93351395 -3 22 C-3.33 22 -3.66 22 -4 22 C-4.29309832 13.90722974 -3.18427758 7.50579714 0 0 Z " fill="currentColor" transform="translate(85,253)"/>
<path d="M0 0 C0.495 0.309375 0.99 0.61875 1.5 0.9375 C3.93348403 1.97173071 5.5280974 2.18141272 8.125 2.375 C12 3 12 3 13.5 5.0625 C13.7475 6.0215625 13.7475 6.0215625 14 7 C8.18733381 6.21450457 2.63122376 4.59317541 -3 3 C-2.01 2.01 -1.02 1.02 0 0 Z " fill="currentColor" transform="translate(151,241)"/>
<path d="M0 0 C2.68863169 2.61181364 5.24322221 5.22922153 7.625 8.125 C9.35087132 10.21421265 11.03907374 12.14228039 13 14 C12.01 14.495 12.01 14.495 11 15 C11 14.34 11 13.68 11 13 C9.68 13 8.36 13 7 13 C4.9375 10.3125 4.9375 10.3125 3 7 C2.4225 6.0925 1.845 5.185 1.25 4.25 C0 2 0 2 0 0 Z " fill="currentColor" transform="translate(175,207)"/>
<path d="M0 0 C1.75070517 0.11470137 3.50057536 0.24219028 5.25 0.375 C6.22453125 0.44460937 7.1990625 0.51421875 8.203125 0.5859375 C10.89633189 0.98465249 12.66963279 1.63507063 15 3 C15 3.99 15 4.98 15 6 C14.34 6 13.68 6 13 6 C13 5.01 13 4.02 13 3 C8.38 3 3.76 3 -1 3 C-0.67 2.01 -0.34 1.02 0 0 Z " fill="currentColor" transform="translate(141,182)"/>
<path d="M0 0 C4.13621084 3.3810038 7.81316569 6.66590534 11 11 C8.03 10.505 8.03 10.505 5 10 C4.67 8.68 4.34 7.36 4 6 C3.01 6 2.02 6 1 6 C0.67 4.02 0.34 2.04 0 0 Z " fill="currentColor" transform="translate(271,240)"/>
<path d="M0 0 C3.13107836 3.38583802 3.33550778 5.71109462 3.1875 10.25 C3.16042969 11.32765625 3.13335937 12.4053125 3.10546875 13.515625 C3.07066406 14.33546875 3.03585938 15.1553125 3 16 C2.34 16 1.68 16 1 16 C-0.12862175 10.63904667 -0.09688221 5.44693314 0 0 Z " fill="currentColor" transform="translate(88,117)"/>
<path d="M0 0 C0.9075 0.391875 1.815 0.78375 2.75 1.1875 C3.08 0.5275 3.41 -0.1325 3.75 -0.8125 C4.183125 -0.35875 4.61625 0.095 5.0625 0.5625 C6.85798342 2.38774334 6.85798342 2.38774334 9.75 4.1875 C7.85388566 4.04536703 5.95811606 3.89863093 4.0625 3.75 C3.00675781 3.66878906 1.95101562 3.58757812 0.86328125 3.50390625 C-1.90086297 3.22298319 -4.53945741 2.78593148 -7.25 2.1875 C-4.52596974 -0.53653026 -3.86366821 -0.96591705 0 0 Z " fill="currentColor" transform="translate(231.25,133.8125)"/>
<path d="M0 0 C5.69051363 0.5381371 11.34865884 1.1400133 17 2 C17 2.33 17 2.66 17 3 C11.39 3 5.78 3 0 3 C0 2.01 0 1.02 0 0 Z " fill="currentColor" transform="translate(192,135)"/>
<path d="M0 0 C5.445 1.485 5.445 1.485 11 3 C6.53335305 5.23332348 5.45964853 5.04645297 0.75 4.125 C-0.86648437 3.81949219 -0.86648437 3.81949219 -2.515625 3.5078125 C-3.33546875 3.34023437 -4.1553125 3.17265625 -5 3 C-4.360625 2.690625 -3.72125 2.38125 -3.0625 2.0625 C-1.06389179 1.1654837 -1.06389179 1.1654837 0 0 Z " fill="currentColor" transform="translate(247,136)"/>
<path d="M0 0 C3.53586014 3.17320782 5.58578031 5.16743695 6 10 C5.01 10.495 5.01 10.495 4 11 C1.22157405 8.22157405 0.05528792 6.21633419 -0.125 2.25 C-0.063125 1.13625 -0.063125 1.13625 0 0 Z " fill="currentColor" transform="translate(289,105)"/>
<path d="M0 0 C3.41742782 1.13914261 4.12880598 2.06390308 6.25 4.875 C6.79140625 5.57367188 7.3328125 6.27234375 7.890625 6.9921875 C8.25671875 7.65476562 8.6228125 8.31734375 9 9 C8.67 9.99 8.34 10.98 8 12 C7.34 11.67 6.68 11.34 6 11 C6 10.01 6 9.02 6 8 C5.34 8 4.68 8 4 8 C0 3.64705882 0 3.64705882 0 0 Z " fill="currentColor" transform="translate(256,66)"/>
<path d="M0 0 C0.66 0.33 1.32 0.66 2 1 C2.33 1.99 2.66 2.98 3 4 C3.99 4 4.98 4 6 4 C8.1875 6.5 8.1875 6.5 10 9 C6.06380262 8.43768609 3.20807554 7.38314183 0 5 C0 3.33333333 0 1.66666667 0 0 Z " fill="currentColor" transform="translate(234,262)"/>
<path d="M0 0 C5.0302076 0.52537724 10.01885239 1.10594786 15 2 C15 2.99 15 3.98 15 5 C10 4 5 3 0 2 C0 1.34 0 0.68 0 0 Z " fill="currentColor" transform="translate(285,151)"/>
<path d="M0 0 C0.66 0 1.32 0 2 0 C2 2.97 2 5.94 2 9 C0.68 8.67 -0.64 8.34 -2 8 C-1.125 1.125 -1.125 1.125 0 0 Z " fill="currentColor" transform="translate(77,282)"/>
<path d="M0 0 C1.9587043 0.14076315 3.91696093 0.2877676 5.875 0.4375 C7.51082031 0.55931641 7.51082031 0.55931641 9.1796875 0.68359375 C12 1 12 1 14 2 C14 2.66 14 3.32 14 4 C4.58997722 3.03644647 4.58997722 3.03644647 0 2 C0 1.34 0 0.68 0 0 Z " fill="currentColor" transform="translate(155,178)"/>
<path d="M0 0 C5.36891879 0.49869404 10.69235173 1.02227532 16 2 C16 2.33 16 2.66 16 3 C9.525862 4.27170568 6.02341941 3.68902652 0 1 C0 0.67 0 0.34 0 0 Z " fill="currentColor" transform="translate(255,146)"/>
<path d="M0 0 C5.69051363 0.5381371 11.34865884 1.1400133 17 2 C17 2.33 17 2.66 17 3 C15.10448978 3.05441656 13.2085208 3.09298035 11.3125 3.125 C10.25675781 3.14820313 9.20101562 3.17140625 8.11328125 3.1953125 C4.97748141 2.99858729 2.82354627 2.33057654 0 1 C0 0.67 0 0.34 0 0 Z " fill="currentColor" transform="translate(215,139)"/>
<path d="M0 0 C1.32 0 2.64 0 4 0 C4.66 1.32 5.32 2.64 6 4 C5.34 4 4.68 4 4 4 C3.67 4.66 3.34 5.32 3 6 C1.68 5.34 0.36 4.68 -1 4 C-0.67 2.68 -0.34 1.36 0 0 Z " fill="currentColor" transform="translate(169,131)"/>
<path d="M0 0 C0.99 0.66 1.98 1.32 3 2 C5.32108669 2.70812814 7.65377147 3.38024152 10 4 C9.67 4.66 9.34 5.32 9 6 C4.05 5.01 -0.9 4.02 -6 3 C-6 2.67 -6 2.34 -6 2 C-3.1875 0.875 -3.1875 0.875 0 0 Z " fill="currentColor" transform="translate(222,188)"/>
<path d="M0 0 C0.66 0.33 1.32 0.66 2 1 C2 1.66 2 2.32 2 3 C3.11375 2.95875 4.2275 2.9175 5.375 2.875 C9 3 9 3 11 5 C9.27054347 4.85764543 7.54144346 4.71095618 5.8125 4.5625 C4.36810547 4.44068359 4.36810547 4.44068359 2.89453125 4.31640625 C0.21350398 4.02333849 -2.3662986 3.57296246 -5 3 C-4.360625 2.690625 -3.72125 2.38125 -3.0625 2.0625 C-1.06389179 1.1654837 -1.06389179 1.1654837 0 0 Z " fill="currentColor" transform="translate(183,181)"/>
<path d="M0 0 C0.66 0.66 1.32 1.32 2 2 C-3.70985978 2.74016701 -9.24186425 3.10469338 -15 3 C-15 2.67 -15 2.34 -15 2 C-5.00312891 -0.48811014 -5.00312891 -0.48811014 0 0 Z " fill="currentColor" transform="translate(41,291)"/>
<path d="M0 0 C0.33 0 0.66 0 1 0 C1.34833144 4.87664009 0.41685712 7.77050005 -2 12 C-3.60170888 7.9957278 -2.34040384 4.94674464 -1 1 C-0.67 0.67 -0.34 0.34 0 0 Z " fill="currentColor" transform="translate(85,247)"/>
<path d="M0 0 C1.32 0.33 2.64 0.66 4 1 C4 1.99 4 2.98 4 4 C4.66 4.33 5.32 4.66 6 5 C6 5.66 6 6.32 6 7 C3.13275314 6.42655063 2.1385485 6.1385485 0 4 C0 2.68 0 1.36 0 0 Z " fill="currentColor" transform="translate(170,192)"/>
<path d="M0 0 C1.43836751 0.11458693 2.87570966 0.24209116 4.3125 0.375 C5.51326172 0.47941406 5.51326172 0.47941406 6.73828125 0.5859375 C9 1 9 1 12 3 C8.8125 3.75 8.8125 3.75 5 4 C2.0625 2.0625 2.0625 2.0625 0 0 Z " fill="currentColor" transform="translate(182,189)"/>
<path d="M0 0 C2.31203927 2.31203927 2.27275091 2.93214375 2.5 6.0625 C2.665 7.361875 2.83 8.66125 3 10 C3.66 10.33 4.32 10.66 5 11 C3.35 10.67 1.7 10.34 0 10 C-1.231394 6.30581799 -0.64432764 3.7943739 0 0 Z " fill="currentColor" transform="translate(96,159)"/>
<path d="M0 0 C1.875 0.125 1.875 0.125 4 1 C5.25 4.0625 5.25 4.0625 6 7 C4.125 6.875 4.125 6.875 2 6 C0.75 2.9375 0.75 2.9375 0 0 Z " fill="currentColor" transform="translate(208,247)"/>
<path d="M0 0 C2 1.375 2 1.375 4 3 C4 3.66 4 4.32 4 5 C4.99 5.33 5.98 5.66 7 6 C5.25 6.6875 5.25 6.6875 3 7 C0.75 5.5625 0.75 5.5625 -1 4 C-0.67 2.68 -0.34 1.36 0 0 Z " fill="currentColor" transform="translate(298,267)"/>
<path d="M0 0 C1.46015291 0.28241641 2.91809793 0.57626614 4.375 0.875 C5.18710937 1.03742188 5.99921875 1.19984375 6.8359375 1.3671875 C9 2 9 2 11 4 C7.7 3.67 4.4 3.34 1 3 C0.67 2.01 0.34 1.02 0 0 Z " fill="currentColor" transform="translate(259,139)"/>
<path d="M0 0 C-3.5486135 2.36574234 -4.5764525 2.10865265 -8.6875 1.625 C-10.17830078 1.45871094 -10.17830078 1.45871094 -11.69921875 1.2890625 C-12.45847656 1.19367188 -13.21773437 1.09828125 -14 1 C-14 0.67 -14 0.34 -14 0 C-9.20699867 -1.39151652 -4.84864218 -0.68662689 0 0 Z " fill="currentColor" transform="translate(161,129)"/>
<path d="M0 0 C1.65 1.65 3.3 3.3 5 5 C2 6 2 6 -0.6875 4.6875 C-1.450625 4.130625 -2.21375 3.57375 -3 3 C-3 2.34 -3 1.68 -3 1 C-2.01 0.67 -1.02 0.34 0 0 Z " fill="currentColor" transform="translate(235,203)"/>
<path d="M0 0 C3.19199167 2.41556126 5.74716687 4.68003538 8 8 C5.125 7.75 5.125 7.75 2 7 C0.13209062 4.45285085 0 3.19131 0 0 Z " fill="currentColor" transform="translate(167,199)"/>
<path d="M0 0 C0.53625 0.165 1.0725 0.33 1.625 0.5 C4.45886009 1.09660212 7.1119806 1.0656368 10 1 C10 2.32 10 3.64 10 5 C8.51793505 4.745504 7.03931385 4.47088238 5.5625 4.1875 C4.73878906 4.03667969 3.91507813 3.88585937 3.06640625 3.73046875 C2.38449219 3.48941406 1.70257813 3.24835938 1 3 C0.67 2.01 0.34 1.02 0 0 Z " fill="currentColor" transform="translate(224,188)"/>
<path d="M0 0 C3 1.8125 3 1.8125 6 4 C6 4.99 6 5.98 6 7 C5.34 7 4.68 7 4 7 C3.34 6.01 2.68 5.02 2 4 C1.01 4.495 1.01 4.495 0 5 C-0.5625 3.0625 -0.5625 3.0625 -1 1 C-0.67 0.67 -0.34 0.34 0 0 Z " fill="currentColor" transform="translate(272,87)"/>
<path d="M0 0 C0.99 0.66 1.98 1.32 3 2 C3.1875 4.625 3.1875 4.625 3 7 C1.35 6.67 -0.3 6.34 -2 6 C-1.34 4.02 -0.68 2.04 0 0 Z " fill="currentColor" transform="translate(317,287)"/>
<path d="M0 0 C2.375 0.6875 2.375 0.6875 5 2 C6.3125 4.625 6.3125 4.625 7 7 C6.01 7.495 6.01 7.495 5 8 C2 4.25 2 4.25 2 2 C1.34 2 0.68 2 0 2 C0 1.34 0 0.68 0 0 Z " fill="currentColor" transform="translate(255,226)"/>
<path d="M0 0 C3.96 0.33 7.92 0.66 12 1 C11.67 1.66 11.34 2.32 11 3 C8.69 3 6.38 3 4 3 C4 2.34 4 1.68 4 1 C2.68 0.67 1.36 0.34 0 0 Z " fill="currentColor" transform="translate(122,172)"/>
<path d="M0 0 C1.32 0 2.64 0 4 0 C4 0.66 4 1.32 4 2 C5.65 2.33 7.3 2.66 9 3 C8.67 3.99 8.34 4.98 8 6 C6.68 5.67 5.36 5.34 4 5 C4.66 4.67 5.32 4.34 6 4 C4.02 3.34 2.04 2.68 0 2 C0 1.34 0 0.68 0 0 Z " fill="currentColor" transform="translate(136,172)"/>
<path d="M0 0 C2.64752004 2.57784846 4.94432065 4.91648098 7 8 C4.625 7.6875 4.625 7.6875 2 7 C0 4 0 4 0 0 Z " fill="currentColor" transform="translate(195,230)"/>
<path d="M0 0 C5.41538462 -0.36923077 5.41538462 -0.36923077 8.375 1.5 C8.91125 1.995 9.4475 2.49 10 3 C9.67 3.99 9.34 4.98 9 6 C8.443125 5.360625 7.88625 4.72125 7.3125 4.0625 C4.77933439 1.80319013 3.31658576 1.36850953 0 1 C0 0.67 0 0.34 0 0 Z " fill="currentColor" transform="translate(223,197)"/>
<path d="M0 0 C2.64 0.33 5.28 0.66 8 1 C8 1.33 8 1.66 8 2 C7.05125 2.103125 6.1025 2.20625 5.125 2.3125 C1.70892499 2.68539295 1.70892499 2.68539295 0 6 C-0.66 5.34 -1.32 4.68 -2 4 C-2 3.34 -2 2.68 -2 2 C-1.34 2 -0.68 2 0 2 C0 1.34 0 0.68 0 0 Z " fill="currentColor" transform="translate(131,180)"/>
<path d="M0 0 C3.11954738 0.33724836 4.6209965 0.6209965 6.875 2.875 C7.24625 3.57625 7.6175 4.2775 8 5 C7.67 5.99 7.34 6.98 7 8 C5.76302083 6.50260417 4.52604167 5.00520833 3.2890625 3.5078125 C2.24749008 2.28948839 1.13339903 1.13339903 0 0 Z " fill="currentColor" transform="translate(225,257)"/>
<path d="M0 0 C4.875 3.625 4.875 3.625 6 7 C3.13275314 6.42655063 2.1385485 6.1385485 0 4 C0 2.68 0 1.36 0 0 Z " fill="currentColor" transform="translate(213,251)"/>
<path d="M0 0 C2.3125 0.125 2.3125 0.125 5 1 C6.8125 4.0625 6.8125 4.0625 8 7 C4.2047869 5.50902342 2.38957269 3.24299151 0 0 Z " fill="currentColor" transform="translate(174,199)"/>
<path d="M0 0 C4.455 0.99 4.455 0.99 9 2 C8.67 2.66 8.34 3.32 8 4 C5.36 3.67 2.72 3.34 0 3 C0 2.01 0 1.02 0 0 Z " fill="currentColor" transform="translate(238,134)"/>
<path d="M0 0 C2.64752004 2.57784846 4.94432065 4.91648098 7 8 C6.01 8.66 5.02 9.32 4 10 C1.125 3.375 1.125 3.375 0 0 Z " fill="currentColor" transform="translate(248,55)"/>
<path d="M0 0 C1.485 0.99 1.485 0.99 3 2 C2.67 3.32 2.34 4.64 2 6 C1.01 5.67 0.02 5.34 -1 5 C-0.67 3.35 -0.34 1.7 0 0 Z " fill="currentColor" transform="translate(314,284)"/>
<path d="M0 0 C1.98 1.65 3.96 3.3 6 5 C4.1875 5.625 4.1875 5.625 2 6 C1.01 5.34 0.02 4.68 -1 4 C-0.67 2.68 -0.34 1.36 0 0 Z " fill="currentColor" transform="translate(290,259)"/>
<path d="M0 0 C2.31 0.33 4.62 0.66 7 1 C6.67 2.65 6.34 4.3 6 6 C3.97945196 4.35830472 1.97956942 2.69088222 0 1 C0 0.67 0 0.34 0 0 Z " fill="currentColor" transform="translate(184,210)"/>
<path d="M0 0 C0.66 0 1.32 0 2 0 C5 3.46153846 5 3.46153846 5 6 C3.35 5.67 1.7 5.34 0 5 C0 3.35 0 1.7 0 0 Z " fill="currentColor" transform="translate(89,170)"/>
<path d="M0 0 C2.64 0 5.28 0 8 0 C8 0.66 8 1.32 8 2 C5.36 2.33 2.72 2.66 0 3 C0 2.01 0 1.02 0 0 Z " fill="currentColor" transform="translate(96,120)"/>
<path d="M0 0 C0 0.33 0 0.66 0 1 C-3.375 1.125 -3.375 1.125 -7 1 C-7.66 0.34 -8.32 -0.32 -9 -1 C-5.38055101 -2.34053666 -3.42632833 -1.61798838 0 0 Z " fill="currentColor" transform="translate(254,272)"/>
<path d="M0 0 C0.99 0.33 1.98 0.66 3 1 C3 1.66 3 2.32 3 3 C3.99 3.33 4.98 3.66 6 4 C4.1875 4.625 4.1875 4.625 2 5 C1.01 4.34 0.02 3.68 -1 3 C-0.67 2.01 -0.34 1.02 0 0 Z " fill="currentColor" transform="translate(242,266)"/>
<path d="M0 0 C2 1.375 2 1.375 4 3 C4 3.66 4 4.32 4 5 C1.69 4.67 -0.62 4.34 -3 4 C-2.01 3.67 -1.02 3.34 0 3 C0 2.01 0 1.02 0 0 Z " fill="currentColor" transform="translate(168,245)"/>
<path d="M0 0 C1.98 1.65 3.96 3.3 6 5 C4.02 5.99 4.02 5.99 2 7 C1.34 4.69 0.68 2.38 0 0 Z " fill="currentColor" transform="translate(271,240)"/>
<path d="M0 0 C2.64 0.66 5.28 1.32 8 2 C8 2.66 8 3.32 8 4 C5.69 3.67 3.38 3.34 1 3 C0.67 2.01 0.34 1.02 0 0 Z " fill="currentColor" transform="translate(128,234)"/>
<path d="M0 0 C0.99 0 1.98 0 3 0 C2.67 2.31 2.34 4.62 2 7 C1.34 7 0.68 7 0 7 C0 4.69 0 2.38 0 0 Z " fill="currentColor" transform="translate(88,231)"/>
<path d="M0 0 C5.875 3.625 5.875 3.625 7 7 C6.34 7 5.68 7 5 7 C5 6.34 5 5.68 5 5 C3.68 5 2.36 5 1 5 C0.67 3.35 0.34 1.7 0 0 Z " fill="currentColor" transform="translate(181,215)"/>
<path d="M0 0 C2.64 0 5.28 0 8 0 C7.67 0.99 7.34 1.98 7 3 C4.69 2.67 2.38 2.34 0 2 C0 1.34 0 0.68 0 0 Z " fill="currentColor" transform="translate(192,192)"/>
<path d="M0 0 C1.32 0 2.64 0 4 0 C4 0.99 4 1.98 4 3 C4.99 3.33 5.98 3.66 7 4 C4.36 3.67 1.72 3.34 -1 3 C-0.67 2.01 -0.34 1.02 0 0 Z " fill="currentColor" transform="translate(272,141)"/>
<path d="M0 0 C0 0.99 0 1.98 0 3 C1.65 3 3.3 3 5 3 C5 3.33 5 3.66 5 4 C1.37 3.67 -2.26 3.34 -6 3 C-2 0 -2 0 0 0 Z " fill="currentColor" transform="translate(230,133)"/>
</svg>
